<svg width="16" height="16" viewBox="0 0 16 16" fill="none" xmlns="http://www.w3.org/2000/svg">
<path d="M1.53577 6.68238C1.20562 5.72728 1.62355 4.70149 2.43641 4.1008C3.05265 3.64541 3.6717 3.18549 4.02494 2.92276C4.1928 2.79791 4.4281 2.82522 4.5636 2.98459L6.48855 5.24857C6.61441 5.39659 6.61447 5.61396 6.4887 5.76205L5.30836 7.1519C5.20091 7.27841 5.18302 7.45887 5.26796 7.60146C5.65041 8.24345 6.07008 8.79334 6.63719 9.36029C7.20763 9.93056 7.75742 10.3421 8.40306 10.7235C8.54576 10.8079 8.72594 10.7899 8.85234 10.6827L10.2365 9.50861C10.3847 9.38295 10.602 9.38304 10.7501 9.50883L13.0159 11.4342C13.1749 11.5693 13.202 11.8044 13.078 11.9721L11.8927 13.5755C11.2968 14.3817 10.279 14.7916 9.33092 14.4654C7.57835 13.8624 5.93235 12.8617 4.53353 11.4633C3.13872 10.0689 2.13946 8.42883 1.53577 6.68238Z" fill="#1C66E5"/>
<path fill-rule="evenodd" clip-rule="evenodd" d="M8.88876 2.1333C8.69239 2.1333 8.5332 2.29249 8.5332 2.48886V6.1737C8.5332 6.37006 8.69239 6.52925 8.88876 6.52925H12.5736C12.77 6.52925 12.9292 6.37006 12.9292 6.1737V5.98782C12.9292 5.7537 13.1723 5.59883 13.3845 5.69784L14.0714 6.01841C14.3071 6.12841 14.5773 5.95634 14.5773 5.69621V2.96633C14.5773 2.7062 14.3071 2.53413 14.0714 2.64414L13.3845 2.9647C13.1723 3.06371 12.9292 2.90884 12.9292 2.67472V2.48886C12.9292 2.29249 12.77 2.1333 12.5736 2.1333H8.88876Z" fill="#1C66E5"/>
</svg>
